[x11grab @ 0x5594d828c000] Stream #0: not enough frames to estimate rate; consider increasing probesize
Input #0, x11grab, from ':99.0+0,0':
  Duration: N/A, start: 1783603981.642814, bitrate: 983520 kb/s
  Stream #0:0: Video: rawvideo (BGR[0] / 0x524742), bgr0, 1366x900, 983520 kb/s, 25 fps, 1000k tbr, 1000k tbn
Stream mapping:
  Stream #0:0 -> #0:0 (rawvideo (native) -> h264 (libx264))
Press [q] to stop, [?] for help
[libx264 @ 0x5594d8294d40] using cpu capabilities: MMX2 SSE2Fast SSSE3 SSE4.2 AVX FMA3 BMI2 AVX2
[libx264 @ 0x5594d8294d40] profile High, level 3.2, 4:2:0, 8-bit
[libx264 @ 0x5594d8294d40] 264 - core 164 r3108 31e19f9 - H.264/MPEG-4 AVC codec - Copyleft 2003-2023 - http://www.videolan.org/x264.html - options: cabac=1 ref=1 deblock=1:0:0 analyse=0x3:0x113 me=hex subme=2 psy=1 psy_rd=1.00:0.00 mixed_ref=0 me_range=16 chroma_me=1 trellis=0 8x8dct=1 cqm=0 deadzone=21,11 fast_pskip=1 chroma_qp_offset=0 threads=3 lookahead_threads=1 sliced_threads=0 nr=0 decimate=1 interlaced=0 bluray_compat=0 constrained_intra=0 bframes=3 b_pyramid=2 b_adapt=1 b_bias=0 direct=1 weightb=1 open_gop=0 weightp=1 keyint=250 keyint_min=25 scenecut=40 intra_refresh=0 rc_lookahead=10 rc=crf mbtree=1 crf=23.0 qcomp=0.60 qpmin=0 qpmax=69 qpstep=4 ip_ratio=1.40 aq=1:1.00
Output #0, mp4, to '/home/runner/work/Auto_Browser/Auto_Browser/recordings/oncc/latest.mp4':
  Metadata:
    encoder         : Lavf60.16.100
  Stream #0:0: Video: h264 (avc1 / 0x31637661), yuv420p(tv, progressive), 1366x900, q=2-31, 25 fps, 12800 tbn
    Metadata:
      encoder         : Lavc60.31.102 libx264
    Side data:
      cpb: bitrate max/min/avg: 0/0/0 buffer size: 0 vbv_delay: N/A
frame=    0 fps=0.0 q=0.0 size=       0kB time=N/A bitrate=N/A speed=N/A    frame=    0 fps=0.0 q=0.0 size=       0kB time=N/A bitrate=N/A speed=N/A    frame=   11 fps= 11 q=28.0 size=       0kB time=00:00:00.36 bitrate=   1.1kbits/s speed=0.346x    frame=   25 fps= 16 q=28.0 size=       0kB time=00:00:00.88 bitrate=   0.4kbits/s speed=0.559x    frame=   37 fps= 18 q=28.0 size=       0kB time=00:00:01.40 bitrate=   0.3kbits/s speed=0.67x    frame=   50 fps= 19 q=28.0 size=       0kB time=00:00:01.92 bitrate=   0.2kbits/s speed=0.738x    frame=   63 fps= 20 q=28.0 size=       0kB time=00:00:02.44 bitrate=   0.2kbits/s speed=0.782x    frame=   76 fps= 21 q=28.0 size=       0kB time=00:00:02.96 bitrate=   0.1kbits/s speed=0.813x    frame=   89 fps= 21 q=28.0 size=       0kB time=00:00:03.48 bitrate=   0.1kbits/s speed=0.836x    frame=  102 fps= 22 q=28.0 size=       0kB time=00:00:04.00 bitrate=   0.1kbits/s speed=0.854x    frame=  116 fps= 22 q=28.0 size=     256kB time=00:00:04.52 bitrate= 464.1kbits/s speed=0.869x    frame=  129 fps= 23 q=28.0 size=     256kB time=00:00:05.04 bitrate= 416.2kbits/s speed=0.88x    frame=  141 fps= 23 q=28.0 size=     256kB time=00:00:05.56 bitrate= 377.3kbits/s speed=0.891x    frame=  154 fps= 23 q=28.0 size=     256kB time=00:00:06.08 bitrate= 345.0kbits/s speed=0.899x    frame=  167 fps= 23 q=28.0 size=     256kB time=00:00:06.60 bitrate= 317.8kbits/s speed=0.907x    frame=  180 fps= 23 q=28.0 size=     256kB time=00:00:07.12 bitrate= 294.6kbits/s speed=0.913x    frame=  193 fps= 23 q=28.0 size=     256kB time=00:00:07.64 bitrate= 274.5kbits/s speed=0.918x    frame=  207 fps= 23 q=28.0 size=     256kB time=00:00:08.16 bitrate= 257.1kbits/s speed=0.923x    frame=  219 fps= 23 q=28.0 size=     512kB time=00:00:08.68 bitrate= 483.3kbits/s speed=0.927x    frame=  233 fps= 24 q=28.0 size=     512kB time=00:00:09.20 bitrate= 455.9kbits/s speed=0.931x    frame=  245 fps= 24 q=28.0 size=     512kB time=00:00:09.72 bitrate= 431.6kbits/s speed=0.934x    frame=  259 fps= 24 q=28.0 size=     512kB time=00:00:10.24 bitrate= 409.6kbits/s speed=0.937x    frame=  271 fps= 24 q=28.0 size=     512kB time=00:00:10.76 bitrate= 389.8kbits/s speed=0.941x    frame=  285 fps= 24 q=28.0 size=     768kB time=00:00:11.28 bitrate= 557.8kbits/s speed=0.943x    frame=  298 fps= 24 q=28.0 size=     768kB time=00:00:11.80 bitrate= 533.2kbits/s speed=0.945x    frame=  310 fps= 24 q=28.0 size=     768kB time=00:00:12.32 bitrate= 510.7kbits/s speed=0.947x    frame=  324 fps= 24 q=28.0 size=     768kB time=00:00:12.84 bitrate= 490.0kbits/s speed=0.949x    frame=  336 fps= 24 q=28.0 size=     768kB time=00:00:13.36 bitrate= 470.9kbits/s speed=0.952x    frame=  349 fps= 24 q=28.0 size=     768kB time=00:00:13.88 bitrate= 453.3kbits/s speed=0.953x    frame=  362 fps= 24 q=28.0 size=     768kB time=00:00:14.40 bitrate= 436.9kbits/s speed=0.955x    frame=  376 fps= 24 q=28.0 size=     768kB time=00:00:14.92 bitrate= 421.7kbits/s speed=0.956x    frame=  388 fps= 24 q=28.0 size=    1024kB time=00:00:15.44 bitrate= 543.3kbits/s speed=0.958x    frame=  401 fps= 24 q=28.0 size=    1024kB time=00:00:15.96 bitrate= 525.6kbits/s speed=0.959x    frame=  414 fps= 24 q=28.0 size=    1024kB time=00:00:16.48 bitrate= 509.0kbits/s speed=0.96x    frame=  428 fps= 24 q=28.0 size=    1024kB time=00:00:17.00 bitrate= 493.5kbits/s speed=0.961x    frame=  440 fps= 24 q=28.0 size=    1024kB time=00:00:17.52 bitrate= 478.8kbits/s speed=0.962x    frame=  453 fps= 24 q=28.0 size=    1024kB time=00:00:18.04 bitrate= 465.0kbits/s speed=0.964x    frame=  466 fps= 24 q=28.0 size=    1024kB time=00:00:18.56 bitrate= 452.0kbits/s speed=0.965x    frame=  479 fps= 24 q=28.0 size=    1280kB time=00:00:19.08 bitrate= 549.6kbits/s speed=0.966x    frame=  492 fps= 24 q=28.0 size=    1280kB time=00:00:19.60 bitrate= 535.0kbits/s speed=0.966x    frame=  505 fps= 24 q=28.0 size=    1536kB time=00:00:20.12 bitrate= 625.4kbits/s speed=0.967x    frame=  518 fps= 24 q=28.0 size=    1792kB time=00:00:20.64 bitrate= 711.3kbits/s speed=0.968x    frame=  531 fps= 24 q=28.0 size=    1792kB time=00:00:21.16 bitrate= 693.8kbits/s speed=0.969x    frame=  545 fps= 24 q=28.0 size=    2048kB time=00:00:21.68 bitrate= 773.9kbits/s speed=0.969x    frame=  557 fps= 24 q=28.0 size=    2048kB time=00:00:22.20 bitrate= 755.7kbits/s speed=0.97x    frame=  570 fps= 24 q=28.0 size=    2048kB time=00:00:22.72 bitrate= 738.5kbits/s speed=0.971x    frame=  583 fps= 24 q=28.0 size=    2048kB time=00:00:23.24 bitrate= 721.9kbits/s speed=0.972x    frame=  597 fps= 24 q=28.0 size=    2048kB time=00:00:23.76 bitrate= 706.1kbits/s speed=0.972x    frame=  609 fps= 24 q=28.0 size=    2048kB time=00:00:24.28 bitrate= 691.0kbits/s speed=0.973x    frame=  623 fps= 24 q=28.0 size=    2048kB time=00:00:24.80 bitrate= 676.5kbits/s speed=0.973x    frame=  635 fps= 24 q=28.0 size=    2048kB time=00:00:25.32 bitrate= 662.6kbits/s speed=0.974x    frame=  648 fps= 24 q=28.0 size=    2048kB time=00:00:25.84 bitrate= 649.3kbits/s speed=0.974x    frame=  661 fps= 24 q=28.0 size=    2048kB time=00:00:26.36 bitrate= 636.5kbits/s speed=0.975x    frame=  675 fps= 24 q=28.0 size=    2304kB time=00:00:26.88 bitrate= 702.2kbits/s speed=0.975x    frame=  688 fps= 25 q=28.0 size=    2304kB time=00:00:27.40 bitrate= 688.9kbits/s speed=0.976x    frame=  701 fps= 25 q=28.0 size=    2304kB time=00:00:27.92 bitrate= 676.0kbits/s speed=0.976x    frame=  713 fps= 24 q=28.0 size=    2304kB time=00:00:28.44 bitrate= 663.7kbits/s speed=0.977x    frame=  727 fps= 25 q=28.0 size=    2304kB time=00:00:28.96 bitrate= 651.8kbits/s speed=0.977x    frame=  739 fps= 25 q=28.0 size=    2304kB time=00:00:29.48 bitrate= 640.3kbits/s speed=0.977x    frame=  752 fps= 25 q=28.0 size=    2560kB time=00:00:30.00 bitrate= 699.1kbits/s speed=0.978x    frame=  765 fps= 25 q=28.0 size=    2560kB time=00:00:30.52 bitrate= 687.2kbits/s speed=0.978x    frame=  778 fps= 25 q=28.0 size=    2560kB time=00:00:31.04 bitrate= 675.6kbits/s speed=0.978x    frame=  791 fps= 25 q=28.0 size=    2560kB time=00:00:31.56 bitrate= 664.5kbits/s speed=0.979x    frame=  805 fps= 25 q=28.0 size=    2560kB time=00:00:32.08 bitrate= 653.7kbits/s speed=0.979x    frame=  817 fps= 25 q=28.0 size=    2560kB time=00:00:32.60 bitrate= 643.3kbits/s speed=0.98x    frame=  830 fps= 25 q=28.0 size=    2816kB time=00:00:33.12 bitrate= 696.5kbits/s speed=0.98x    frame=  843 fps= 25 q=28.0 size=    2816kB time=00:00:33.64 bitrate= 685.8kbits/s speed=0.98x    frame=  856 fps= 25 q=28.0 size=    2816kB time=00:00:34.16 bitrate= 675.3kbits/s speed=0.98x    frame=  870 fps= 25 q=28.0 size=    2816kB time=00:00:34.68 bitrate= 665.2kbits/s speed=0.981x    frame=  882 fps= 25 q=28.0 size=    2816kB time=00:00:35.20 bitrate= 655.4kbits/s speed=0.981x    frame=  895 fps= 25 q=28.0 size=    2816kB time=00:00:35.72 bitrate= 645.8kbits/s speed=0.981x    frame=  908 fps= 25 q=28.0 size=    2816kB time=00:00:36.24 bitrate= 636.6kbits/s speed=0.982x    frame=  922 fps= 25 q=28.0 size=    2816kB time=00:00:36.76 bitrate= 627.6kbits/s speed=0.982x    frame=  935 fps= 25 q=28.0 size=    3072kB time=00:00:37.28 bitrate= 675.1kbits/s speed=0.982x    frame=  948 fps= 25 q=28.0 size=    3072kB time=00:00:37.80 bitrate= 665.8kbits/s speed=0.982x    frame=  960 fps= 25 q=28.0 size=    3072kB time=00:00:38.32 bitrate= 656.7kbits/s speed=0.983x    frame=  973 fps= 25 q=28.0 size=    3328kB time=00:00:38.84 bitrate= 701.9kbits/s speed=0.983x    frame=  986 fps= 25 q=28.0 size=    3328kB time=00:00:39.36 bitrate= 692.7kbits/s speed=0.983x    frame= 1000 fps= 25 q=28.0 size=    3584kB time=00:00:39.88 bitrate= 736.2kbits/s speed=0.983x    frame= 1012 fps= 25 q=28.0 size=    3584kB time=00:00:40.40 bitrate= 726.7kbits/s speed=0.983x    frame= 1025 fps= 25 q=28.0 size=    3840kB time=00:00:40.92 bitrate= 768.8kbits/s speed=0.984x    frame= 1039 fps= 25 q=28.0 size=    3840kB time=00:00:41.44 bitrate= 759.1kbits/s speed=0.984x    frame= 1051 fps= 25 q=28.0 size=    4096kB time=00:00:41.96 bitrate= 799.7kbits/s speed=0.984x    frame= 1065 fps= 25 q=28.0 size=    4096kB time=00:00:42.48 bitrate= 789.9kbits/s speed=0.984x    frame= 1078 fps= 25 q=28.0 size=    4096kB time=00:00:43.00 bitrate= 780.3kbits/s speed=0.984x    frame= 1091 fps= 25 q=28.0 size=    4096kB time=00:00:43.52 bitrate= 771.0kbits/s speed=0.985x    frame= 1103 fps= 25 q=28.0 size=    4096kB time=00:00:44.04 bitrate= 761.9kbits/s speed=0.985x    frame= 1117 fps= 25 q=28.0 size=    4096kB time=00:00:44.56 bitrate= 753.0kbits/s speed=0.985x    frame= 1129 fps= 25 q=28.0 size=    4096kB time=00:00:45.08 bitrate= 744.3kbits/s speed=0.985x    frame= 1142 fps= 25 q=28.0 size=    4352kB time=00:00:45.60 bitrate= 781.8kbits/s speed=0.985x    frame= 1156 fps= 25 q=28.0 size=    4352kB time=00:00:46.12 bitrate= 773.0kbits/s speed=0.985x    frame= 1168 fps= 25 q=28.0 size=    4352kB time=00:00:46.64 bitrate= 764.4kbits/s speed=0.986x    frame= 1181 fps= 25 q=28.0 size=    4352kB time=00:00:47.16 bitrate= 756.0kbits/s speed=0.986x    frame= 1194 fps= 25 q=28.0 size=    4352kB time=00:00:47.68 bitrate= 747.7kbits/s speed=0.986x    frame= 1207 fps= 25 q=28.0 size=    4352kB time=00:00:48.20 bitrate= 739.7kbits/s speed=0.986x    frame= 1220 fps= 25 q=28.0 size=    4352kB time=00:00:48.72 bitrate= 731.8kbits/s speed=0.986x    frame= 1234 fps= 25 q=28.0 size=    4352kB time=00:00:49.24 bitrate= 724.0kbits/s speed=0.986x    frame= 1247 fps= 25 q=28.0 size=    4352kB time=00:00:49.76 bitrate= 716.5kbits/s speed=0.986x    frame= 1259 fps= 25 q=28.0 size=    4608kB time=00:00:50.28 bitrate= 750.8kbits/s speed=0.987x    frame= 1272 fps= 25 q=28.0 size=    4608kB time=00:00:50.80 bitrate= 743.1kbits/s speed=0.987x    frame= 1285 fps= 25 q=28.0 size=    4608kB time=00:00:51.32 bitrate= 735.6kbits/s speed=0.987x    frame= 1299 fps= 25 q=28.0 size=    4608kB time=00:00:51.84 bitrate= 728.2kbits/s speed=0.987x    frame= 1311 fps= 25 q=28.0 size=    4608kB time=00:00:52.36 bitrate= 721.0kbits/s speed=0.987x    frame= 1325 fps= 25 q=28.0 size=    4608kB time=00:00:52.88 bitrate= 713.9kbits/s speed=0.987x    frame= 1337 fps= 25 q=28.0 size=    4608kB time=00:00:53.40 bitrate= 706.9kbits/s speed=0.987x    frame= 1351 fps= 25 q=28.0 size=    4864kB time=00:00:53.92 bitrate= 739.0kbits/s speed=0.988x    frame= 1363 fps= 25 q=28.0 size=    4864kB time=00:00:54.44 bitrate= 731.9kbits/s speed=0.988x    frame= 1376 fps= 25 q=28.0 size=    4864kB time=00:00:54.96 bitrate= 725.0kbits/s speed=0.988x    frame= 1389 fps= 25 q=28.0 size=    4864kB time=00:00:55.48 bitrate= 718.2kbits/s speed=0.988x    frame= 1403 fps= 25 q=28.0 size=    4864kB time=00:00:56.00 bitrate= 711.5kbits/s speed=0.988x    frame= 1415 fps= 25 q=28.0 size=    4864kB time=00:00:56.52 bitrate= 705.0kbits/s speed=0.988x    frame= 1428 fps= 25 q=28.0 size=    4864kB time=00:00:57.04 bitrate= 698.6kbits/s speed=0.988x    frame= 1441 fps= 25 q=28.0 size=    4864kB time=00:00:57.56 bitrate= 692.3kbits/s speed=0.988x    frame= 1455 fps= 25 q=28.0 size=    4864kB time=00:00:58.08 bitrate= 686.1kbits/s speed=0.988x    frame= 1468 fps= 25 q=28.0 size=    5120kB time=00:00:58.60 bitrate= 715.8kbits/s speed=0.988x    frame= 1480 fps= 25 q=28.0 size=    5120kB time=00:00:59.12 bitrate= 709.5kbits/s speed=0.989x    frame= 1494 fps= 25 q=28.0 size=    5376kB time=00:00:59.64 bitrate= 738.4kbits/s speed=0.989x    frame= 1506 fps= 25 q=28.0 size=    5632kB time=00:01:00.16 bitrate= 766.9kbits/s speed=0.989x    frame= 1520 fps= 25 q=28.0 size=    5632kB time=00:01:00.68 bitrate= 760.3kbits/s speed=0.989x    frame= 1533 fps= 25 q=28.0 size=    5632kB time=00:01:01.20 bitrate= 753.9kbits/s speed=0.989x    frame= 1546 fps= 25 q=28.0 size=    5888kB time=00:01:01.72 bitrate= 781.5kbits/s speed=0.989x    frame= 1558 fps= 25 q=28.0 size=    5888kB time=00:01:02.24 bitrate= 775.0kbits/s speed=0.989x    frame= 1571 fps= 25 q=28.0 size=    5888kB time=00:01:02.76 bitrate= 768.6kbits/s speed=0.989x    frame= 1584 fps= 25 q=28.0 size=    5888kB time=00:01:03.28 bitrate= 762.2kbits/s speed=0.989x    frame= 1598 fps= 25 q=28.0 size=    5888kB time=00:01:03.80 bitrate= 756.0kbits/s speed=0.989x    frame= 1611 fps= 25 q=28.0 size=    5888kB time=00:01:04.32 bitrate= 749.9kbits/s speed=0.99x    frame= 1624 fps= 25 q=28.0 size=    5888kB time=00:01:04.84 bitrate= 743.9kbits/s speed=0.99x    frame= 1637 fps= 25 q=28.0 size=    5888kB time=00:01:05.36 bitrate= 738.0kbits/s speed=0.99x    frame= 1649 fps= 25 q=28.0 size=    5888kB time=00:01:05.88 bitrate= 732.2kbits/s speed=0.99x    frame= 1662 fps= 25 q=28.0 size=    6144kB time=00:01:06.40 bitrate= 758.0kbits/s speed=0.99x    frame= 1675 fps= 25 q=28.0 size=    6144kB time=00:01:06.92 bitrate= 752.1kbits/s speed=0.99x    frame= 1688 fps= 25 q=28.0 size=    6144kB time=00:01:07.44 bitrate= 746.3kbits/s speed=0.99x    frame= 1701 fps= 25 q=28.0 size=    6144kB time=00:01:07.96 bitrate= 740.6kbits/s speed=0.99x    frame= 1715 fps= 25 q=28.0 size=    6144kB time=00:01:08.48 bitrate= 735.0kbits/s speed=0.99x    frame= 1728 fps= 25 q=28.0 size=    6144kB time=00:01:09.00 bitrate= 729.4kbits/s speed=0.99x    frame= 1741 fps= 25 q=28.0 size=    6144kB time=00:01:09.52 bitrate= 724.0kbits/s speed=0.99x    frame= 1753 fps= 25 q=28.0 size=    6400kB time=00:01:10.04 bitrate= 748.6kbits/s speed=0.99x    frame= 1766 fps= 25 q=28.0 size=    6400kB time=00:01:10.56 bitrate= 743.0kbits/s speed=0.99x    frame= 1780 fps= 25 q=28.0 size=    6400kB time=00:01:11.08 bitrate= 737.6kbits/s speed=0.99x    frame= 1793 fps= 25 q=28.0 size=    6400kB time=00:01:11.60 bitrate= 732.3kbits/s speed=0.991x    frame= 1805 fps= 25 q=28.0 size=    6400kB time=00:01:12.12 bitrate= 727.0kbits/s speed=0.991x    frame= 1819 fps= 25 q=28.0 size=    6400kB time=00:01:12.64 bitrate= 721.8kbits/s speed=0.991x    frame= 1831 fps= 25 q=28.0 size=    6656kB time=00:01:13.16 bitrate= 745.3kbits/s speed=0.991x    frame= 1844 fps= 25 q=28.0 size=    6656kB time=00:01:13.68 bitrate= 740.0kbits/s speed=0.991x    frame= 1857 fps= 25 q=28.0 size=    6656kB time=00:01:14.20 bitrate= 734.9kbits/s speed=0.991x    frame= 1871 fps= 25 q=28.0 size=    6656kB time=00:01:14.72 bitrate= 729.7kbits/s speed=0.991x    frame= 1883 fps= 25 q=28.0 size=    6656kB time=00:01:15.24 bitrate= 724.7kbits/s speed=0.991x    frame= 1897 fps= 25 q=28.0 size=    6656kB time=00:01:15.76 bitrate= 719.7kbits/s speed=0.991x    frame= 1909 fps= 25 q=28.0 size=    6656kB time=00:01:16.28 bitrate= 714.8kbits/s speed=0.991x    frame= 1923 fps= 25 q=28.0 size=    6656kB time=00:01:16.80 bitrate= 710.0kbits/s speed=0.991x    frame= 1935 fps= 25 q=28.0 size=    6912kB time=00:01:17.32 bitrate= 732.3kbits/s speed=0.991x    frame= 1948 fps= 25 q=28.0 size=    6912kB time=00:01:17.84 bitrate= 727.4kbits/s speed=0.991x    frame= 1960 fps= 25 q=28.0 size=    6912kB time=00:01:18.32 bitrate= 723.0kbits/s speed=0.991x    frame= 1973 fps= 25 q=28.0 size=    7168kB time=00:01:18.84 bitrate= 744.8kbits/s speed=0.991x    frame= 1987 fps= 25 q=28.0 size=    7168kB time=00:01:19.36 bitrate= 739.9kbits/s speed=0.992x    frame= 1999 fps= 25 q=28.0 size=    7424kB time=00:01:19.88 bitrate= 761.4kbits/s speed=0.992x    frame= 2013 fps= 25 q=28.0 size=    7680kB time=00:01:20.40 bitrate= 782.5kbits/s speed=0.992x    frame= 2025 fps= 25 q=28.0 size=    7680kB time=00:01:20.92 bitrate= 777.5kbits/s speed=0.992x    frame= 2038 fps= 25 q=28.0 size=    7680kB time=00:01:21.44 bitrate= 772.5kbits/s speed=0.992x    frame= 2052 fps= 25 q=28.0 size=    7680kB time=00:01:21.96 bitrate= 767.6kbits/s speed=0.992x    frame= 2064 fps= 25 q=28.0 size=    7680kB time=00:01:22.48 bitrate= 762.8kbits/s speed=0.992x    frame= 2077 fps= 25 q=28.0 size=    7680kB time=00:01:23.00 bitrate= 758.0kbits/s speed=0.992x    frame= 2090 fps= 25 q=28.0 size=    7680kB time=00:01:23.52 bitrate= 753.3kbits/s speed=0.992x    frame= 2104 fps= 25 q=28.0 size=    7936kB time=00:01:24.04 bitrate= 773.6kbits/s speed=0.992x    frame= 2116 fps= 25 q=28.0 size=    7936kB time=00:01:24.56 bitrate= 768.8kbits/s speed=0.992x    frame= 2129 fps= 25 q=28.0 size=    7936kB time=00:01:25.08 bitrate= 764.1kbits/s speed=0.992x    frame= 2143 fps= 25 q=28.0 size=    7936kB time=00:01:25.60 bitrate= 759.5kbits/s speed=0.992x    frame= 2155 fps= 25 q=28.0 size=    7936kB time=00:01:26.12 bitrate= 754.9kbits/s speed=0.992x    frame= 2169 fps= 25 q=28.0 size=    7936kB time=00:01:26.64 bitrate= 750.4kbits/s speed=0.992x    frame= 2181 fps= 25 q=28.0 size=    7936kB time=00:01:27.16 bitrate= 745.9kbits/s speed=0.992x    frame= 2195 fps= 25 q=28.0 size=    7936kB time=00:01:27.68 bitrate= 741.5kbits/s speed=0.992x    frame= 2207 fps= 25 q=28.0 size=    8192kB time=00:01:28.20 bitrate= 760.9kbits/s speed=0.992x    frame= 2220 fps= 25 q=28.0 size=    8192kB time=00:01:28.72 bitrate= 756.4kbits/s speed=0.992x    frame= 2233 fps= 25 q=28.0 size=    8192kB time=00:01:29.24 bitrate= 752.0kbits/s speed=0.992x    frame= 2247 fps= 25 q=28.0 size=    8192kB time=00:01:29.76 bitrate= 747.7kbits/s speed=0.992x    frame= 2259 fps= 25 q=28.0 size=    8192kB time=00:01:30.28 bitrate= 743.3kbits/s speed=0.993x    frame= 2272 fps= 25 q=28.0 size=    8192kB time=00:01:30.80 bitrate= 739.1kbits/s speed=0.993x    frame= 2285 fps= 25 q=28.0 size=    8448kB time=00:01:31.32 bitrate= 757.8kbits/s speed=0.993x    frame= 2298 fps= 25 q=28.0 size=    8448kB time=00:01:31.84 bitrate= 753.6kbits/s speed=0.993x    frame= 2312 fps= 25 q=28.0 size=    8448kB time=00:01:32.36 bitrate= 749.3kbits/s speed=0.993x    frame= 2324 fps= 25 q=28.0 size=    8448kB time=00:01:32.88 bitrate= 745.1kbits/s speed=0.993x    frame= 2337 fps= 25 q=28.0 size=    8448kB time=00:01:33.40 bitrate= 741.0kbits/s speed=0.993x    frame= 2350 fps= 25 q=28.0 size=    8448kB time=00:01:33.92 bitrate= 736.9kbits/s speed=0.993x    frame= 2364 fps= 25 q=28.0 size=    8448kB time=00:01:34.44 bitrate= 732.8kbits/s speed=0.993x    frame= 2377 fps= 25 q=28.0 size=    8448kB time=00:01:34.96 bitrate= 728.8kbits/s speed=0.993x    frame= 2390 fps= 25 q=28.0 size=    8448kB time=00:01:35.48 bitrate= 724.8kbits/s speed=0.993x    frame= 2402 fps= 25 q=28.0 size=    8704kB time=00:01:36.00 bitrate= 742.7kbits/s speed=0.993x    frame= 2416 fps= 25 q=28.0 size=    8704kB time=00:01:36.52 bitrate= 738.7kbits/s speed=0.993x    frame= 2428 fps= 25 q=28.0 size=    8704kB time=00:01:37.04 bitrate= 734.8kbits/s speed=0.993x    frame= 2442 fps= 25 q=28.0 size=    8704kB time=00:01:37.56 bitrate= 730.9kbits/s speed=0.993x    frame= 2454 fps= 25 q=28.0 size=    8704kB time=00:01:38.08 bitrate= 727.0kbits/s speed=0.993x    frame= 2468 fps= 25 q=28.0 size=    8704kB time=00:01:38.60 bitrate= 723.2kbits/s speed=0.993x    frame= 2480 fps= 25 q=28.0 size=    8960kB time=00:01:39.12 bitrate= 740.5kbits/s speed=0.993x    frame= 2493 fps= 25 q=28.0 size=    8960kB time=00:01:39.64 bitrate= 736.7kbits/s speed=0.993x    frame= 2506 fps= 25 q=28.0 size=    9216kB time=00:01:40.16 bitrate= 753.8kbits/s speed=0.993x    frame= 2520 fps= 25 q=28.0 size=    9216kB time=00:01:40.68 bitrate= 749.9kbits/s speed=0.993x    frame= 2533 fps= 25 q=28.0 size=    9472kB time=00:01:41.20 bitrate= 766.7kbits/s speed=0.993x    frame= 2545 fps= 25 q=28.0 size=    9472kB time=00:01:41.72 bitrate= 762.8kbits/s speed=0.993x    frame= 2558 fps= 25 q=28.0 size=    9472kB time=00:01:42.24 bitrate= 758.9kbits/s speed=0.993x    frame= 2572 fps= 25 q=28.0 size=    9472kB time=00:01:42.76 bitrate= 755.1kbits/s speed=0.993x    frame= 2584 fps= 25 q=28.0 size=    9472kB time=00:01:43.28 bitrate= 751.3kbits/s speed=0.993x    frame= 2598 fps= 25 q=28.0 size=    9472kB time=00:01:43.80 bitrate= 747.5kbits/s speed=0.993x    frame= 2610 fps= 25 q=28.0 size=    9728kB time=00:01:44.32 bitrate= 763.9kbits/s speed=0.994x    frame= 2624 fps= 25 q=28.0 size=    9728kB time=00:01:44.84 bitrate= 760.1kbits/s speed=0.994x    frame= 2637 fps= 25 q=28.0 size=    9728kB time=00:01:45.36 bitrate= 756.4kbits/s speed=0.994x    frame= 2650 fps= 25 q=28.0 size=    9728kB time=00:01:45.88 bitrate= 752.7kbits/s speed=0.994x    frame= 2663 fps= 25 q=28.0 size=    9728kB time=00:01:46.40 bitrate= 749.0kbits/s speed=0.994x    frame= 2675 fps= 25 q=28.0 size=    9728kB time=00:01:46.92 bitrate= 745.3kbits/s speed=0.994x    frame= 2689 fps= 25 q=28.0 size=    9728kB time=00:01:47.44 bitrate= 741.7kbits/s speed=0.994x    frame= 2702 fps= 25 q=28.0 size=    9728kB time=00:01:47.96 bitrate= 738.2kbits/s speed=0.994x    frame= 2714 fps= 25 q=28.0 size=    9728kB time=00:01:48.48 bitrate= 734.6kbits/s speed=0.994x    frame= 2727 fps= 25 q=28.0 size=    9728kB time=00:01:49.00 bitrate= 731.1kbits/s speed=0.994x    frame= 2741 fps= 25 q=28.0 size=    9728kB time=00:01:49.52 bitrate= 727.6kbits/s speed=0.994x    frame= 2753 fps= 25 q=28.0 size=    9984kB time=00:01:50.04 bitrate= 743.3kbits/s speed=0.994x    frame= 2767 fps= 25 q=28.0 size=    9984kB time=00:01:50.56 bitrate= 739.8kbits/s speed=0.994x    frame= 2779 fps= 25 q=28.0 size=    9984kB time=00:01:51.08 bitrate= 736.3kbits/s speed=0.994x    frame= 2793 fps= 25 q=28.0 size=    9984kB time=00:01:51.60 bitrate= 732.9kbits/s speed=0.994x    frame= 2805 fps= 25 q=28.0 size=    9984kB time=00:01:52.12 bitrate= 729.5kbits/s speed=0.994x    frame= 2819 fps= 25 q=28.0 size=    9984kB time=00:01:52.64 bitrate= 726.1kbits/s speed=0.994x    frame= 2832 fps= 25 q=28.0 size=    9984kB time=00:01:53.16 bitrate= 722.8kbits/s speed=0.994x    frame= 2845 fps= 25 q=28.0 size=    9984kB time=00:01:53.68 bitrate= 719.5kbits/s speed=0.994x    frame= 2858 fps= 25 q=28.0 size=    9984kB time=00:01:54.20 bitrate= 716.2kbits/s speed=0.994x    frame= 2871 fps= 25 q=28.0 size=    9984kB time=00:01:54.72 bitrate= 712.9kbits/s speed=0.994x    frame= 2884 fps= 25 q=28.0 size=    9984kB time=00:01:55.24 bitrate= 709.7kbits/s speed=0.994x    frame= 2897 fps= 25 q=28.0 size=    9984kB time=00:01:55.76 bitrate= 706.5kbits/s speed=0.994x    frame= 2909 fps= 25 q=28.0 size=    9984kB time=00:01:56.28 bitrate= 703.4kbits/s speed=0.994x    frame= 2923 fps= 25 q=28.0 size=    9984kB time=00:01:56.80 bitrate= 700.3kbits/s speed=0.994x    frame= 2935 fps= 25 q=28.0 size=    9984kB time=00:01:57.32 bitrate= 697.1kbits/s speed=0.994x    frame= 2949 fps= 25 q=28.0 size=    9984kB time=00:01:57.84 bitrate= 694.1kbits/s speed=0.994x    [mp4 @ 0x5594d8294200] Starting second pass: moving the moov atom to the beginning of the file
[out#0/mp4 @ 0x5594d8293580] video:10127kB audio:0kB subtitle:0kB other streams:0kB global headers:0kB muxing overhead: 0.353571%
frame= 2975 fps= 25 q=-1.0 Lsize=   10163kB time=00:01:58.88 bitrate= 700.3kbits/s speed=0.998x    
[libx264 @ 0x5594d8294d40] frame I:12    Avg QP:16.63  size: 95221
[libx264 @ 0x5594d8294d40] frame P:750   Avg QP:21.77  size:  6455
[libx264 @ 0x5594d8294d40] frame B:2213  Avg QP:28.39  size:  1982
[libx264 @ 0x5594d8294d40] consecutive B-frames:  0.6%  0.5%  0.6% 98.3%
[libx264 @ 0x5594d8294d40] mb I  I16..4: 39.2% 18.9% 41.9%
[libx264 @ 0x5594d8294d40] mb P  I16..4:  1.4%  1.7%  1.1%  P16..4:  5.6%  2.2%  1.1%  0.0%  0.0%    skip:86.9%
[libx264 @ 0x5594d8294d40] mb B  I16..4:  0.3%  0.8%  0.3%  B16..8:  1.1%  0.7%  0.2%  direct: 0.7%  skip:95.9%  L0:39.4% L1:42.9% BI:17.7%
[libx264 @ 0x5594d8294d40] 8x8 transform intra:44.7% inter:20.7%
[libx264 @ 0x5594d8294d40] coded y,uvDC,uvAC intra: 63.3% 72.0% 50.0% inter: 1.4% 1.7% 0.4%
[libx264 @ 0x5594d8294d40] i16 v,h,dc,p: 44% 39%  7%  9%
[libx264 @ 0x5594d8294d40] i8 v,h,dc,ddl,ddr,vr,hd,vl,hu: 20% 22% 13%  6%  7%  8%  8%  8%  9%
[libx264 @ 0x5594d8294d40] i4 v,h,dc,ddl,ddr,vr,hd,vl,hu: 23% 23% 12%  6%  8%  8%  7%  7%  6%
[libx264 @ 0x5594d8294d40] i8c dc,h,v,p: 36% 28% 22% 13%
[libx264 @ 0x5594d8294d40] Weighted P-Frames: Y:0.0% UV:0.0%
[libx264 @ 0x5594d8294d40] kb/s:697.13
